<svg width="24" height="25" viewBox="0 0 24 25" fill="none" xmlns="http://www.w3.org/2000/svg">
<g clip-path="url(#clip0_2_474)">
<path d="M15.4116 14.1256C15.5154 14.0565 15.6349 14.0144 15.7591 14.0031C15.8834 13.9918 16.0085 14.0117 16.1231 14.0609L20.5444 16.0419C20.6934 16.1056 20.8177 16.2158 20.8989 16.3561C20.98 16.4963 21.0135 16.6591 20.9944 16.82C20.8487 17.9085 20.3127 18.907 19.486 19.6299C18.6593 20.3528 17.5982 20.7508 16.5 20.75C13.1185 20.75 9.87548 19.4067 7.48439 17.0156C5.0933 14.6245 3.75 11.3815 3.75 8C3.74916 6.90182 4.1472 5.8407 4.87009 5.014C5.59298 4.1873 6.59152 3.65128 7.68 3.50563C7.84091 3.48651 8.00368 3.52002 8.14395 3.60114C8.28422 3.68226 8.39444 3.80663 8.45813 3.95563L10.4391 8.38063C10.4877 8.49428 10.5076 8.6182 10.4968 8.74136C10.486 8.86453 10.4449 8.98311 10.3772 9.08656L8.37375 11.4688C8.30269 11.576 8.26066 11.6998 8.25179 11.8282C8.24291 11.9565 8.26749 12.0849 8.32313 12.2009C9.09844 13.7881 10.7391 15.4091 12.3309 16.1769C12.4475 16.2323 12.5766 16.2563 12.7053 16.2466C12.834 16.2369 12.958 16.1938 13.065 16.1216L15.4116 14.1256Z" stroke="#1E1E1E" stroke-width="2" stroke-linecap="round" stroke-linejoin="round"/>
</g>
<defs>
<clipPath id="clip0_2_474">
<rect width="24" height="24" fill="white" transform="translate(0 0.5)"/>
</clipPath>
</defs>
</svg>
