<svg width="32" height="32" viewBox="0 0 32 32" fill="none" xmlns="http://www.w3.org/2000/svg">
<g clip-path="url(#clip0_16_213)">
<path d="M16 23.6363L22.84 27.8426C23.0174 27.9503 23.2229 28.003 23.4303 27.994C23.6377 27.985 23.8378 27.9148 24.0053 27.7921C24.1728 27.6694 24.3001 27.4999 24.3713 27.3048C24.4424 27.1098 24.4541 26.898 24.405 26.6963L22.545 18.8476L28.6325 13.5976C28.7877 13.4613 28.8996 13.2825 28.9544 13.0834C29.0091 12.8842 29.0044 12.6734 28.9407 12.4769C28.877 12.2804 28.7572 12.1069 28.596 11.9777C28.4348 11.8485 28.2394 11.7694 28.0337 11.7501L20.045 11.1001L16.9675 3.65007C16.889 3.45787 16.7551 3.29339 16.5828 3.17761C16.4105 3.06183 16.2076 3 16 3C15.7924 3 15.5895 3.06183 15.4172 3.17761C15.2449 3.29339 15.1109 3.45787 15.0325 3.65007L11.955 11.1001L3.96622 11.7501C3.75918 11.7683 3.56209 11.847 3.39956 11.9766C3.23704 12.1061 3.11629 12.2807 3.05241 12.4785C2.98853 12.6763 2.98434 12.8885 3.04038 13.0886C3.09641 13.2888 3.21018 13.468 3.36747 13.6038L9.45497 18.8538L7.59497 26.6963C7.5458 26.898 7.55753 27.1098 7.62867 27.3048C7.69981 27.4999 7.82717 27.6694 7.99466 27.7921C8.16215 27.9148 8.36225 27.985 8.56967 27.994C8.77708 28.003 8.98251 27.9503 9.15997 27.8426L16 23.6363Z" stroke="#FAFAFA" stroke-width="2" stroke-linecap="round" stroke-linejoin="round"/>
</g>
<defs>
<clipPath id="clip0_16_213">
<rect width="32" height="32" fill="white"/>
</clipPath>
</defs>
</svg>
