<svg width="41" height="40" viewBox="0 0 41 40" fill="none" xmlns="http://www.w3.org/2000/svg">
<g clip-path="url(#clip0_11_1056)">
<path d="M40.5 0H0.5V40H40.5V0Z" fill="#E95404"/>
<g clip-path="url(#clip1_11_1056)">
<path d="M9.06255 21.2502C8.04388 19.3471 7.74312 17.1413 8.21513 15.0349C8.68715 12.9286 9.90048 11.062 11.6339 9.77566C13.3673 8.48928 15.5053 7.86875 17.6581 8.02723C19.8108 8.18571 21.8349 9.11263 23.3613 10.639C24.8876 12.1653 25.8146 14.1894 25.973 16.3422C26.1315 18.495 25.511 20.633 24.2246 22.3664C22.9382 24.0998 21.0717 25.3131 18.9653 25.7851C16.859 26.2571 14.6532 25.9564 12.7501 24.9377L9.28005 25.9577C9.10775 26.0083 8.925 26.0116 8.751 25.9672C8.577 25.9228 8.41816 25.8323 8.29118 25.7053C8.1642 25.5784 8.07375 25.4195 8.02935 25.2455C7.98494 25.0715 7.9882 24.8888 8.0388 24.7165L9.06255 21.2502Z" stroke="#FAFAFA" stroke-width="2" stroke-linecap="round" stroke-linejoin="round"/>
<path d="M25.4926 14.0137C27.0045 14.0959 28.4712 14.5582 29.757 15.3578C31.0427 16.1574 32.106 17.2685 32.8483 18.5882C33.5906 19.9079 33.9879 21.3936 34.0035 22.9076C34.0191 24.4217 33.6525 25.9152 32.9376 27.2499L33.9576 30.7199C34.0082 30.8922 34.0114 31.075 33.967 31.249C33.9226 31.423 33.8322 31.5818 33.7052 31.7088C33.5782 31.8358 33.4194 31.9262 33.2454 31.9706C33.0714 32.015 32.8886 32.0118 32.7163 31.9612L29.2501 30.9374C28.105 31.5498 26.8412 31.9073 25.545 31.9855C24.2489 32.0637 22.9512 31.8606 21.7409 31.3904C20.5306 30.9201 19.4363 30.1936 18.533 29.2608C17.6297 28.3281 16.9387 27.211 16.5076 25.9862" stroke="#FAFAFA" stroke-width="2" stroke-linecap="round" stroke-linejoin="round"/>
</g>
</g>
<defs>
<clipPath id="clip0_11_1056">
<rect x="0.5" width="40" height="40" rx="5" fill="white"/>
</clipPath>
<clipPath id="clip1_11_1056">
<rect width="32" height="32" fill="white" transform="translate(5 4)"/>
</clipPath>
</defs>
</svg>
