<svg width="24" height="25" viewBox="0 0 24 25" fill="none" xmlns="http://www.w3.org/2000/svg">
<g opacity="0.5" clip-path="url(#clip0_2_521)">
<path d="M9.75 20.7501V14.7501H14.25V20.7501H20.25V11.7501C20.2501 11.6516 20.2307 11.554 20.1931 11.463C20.1555 11.3719 20.1003 11.2892 20.0306 11.2195L12.5306 3.71948C12.461 3.64974 12.3783 3.59443 12.2872 3.55668C12.1962 3.51894 12.0986 3.49951 12 3.49951C11.9014 3.49951 11.8038 3.51894 11.7128 3.55668C11.6217 3.59443 11.539 3.64974 11.4694 3.71948L3.96938 11.2195C3.89975 11.2892 3.84454 11.3719 3.8069 11.463C3.76926 11.554 3.74992 11.6516 3.75 11.7501V20.7501H9.75Z" stroke="#FAFAFA" stroke-width="2" stroke-linecap="round" stroke-linejoin="round"/>
</g>
<defs>
<clipPath id="clip0_2_521">
<rect width="24" height="24" fill="white" transform="translate(0 0.5)"/>
</clipPath>
</defs>
</svg>
