<svg width="24" height="25" viewBox="0 0 24 25" fill="none" xmlns="http://www.w3.org/2000/svg">
<g opacity="0.5" clip-path="url(#clip0_2_483)">
<path d="M15.4116 14.1257C15.5154 14.0566 15.6349 14.0145 15.7591 14.0032C15.8834 13.9919 16.0085 14.0118 16.1231 14.061L20.5444 16.042C20.6934 16.1057 20.8177 16.2159 20.8989 16.3562C20.98 16.4964 21.0135 16.6592 20.9944 16.8201C20.8487 17.9086 20.3127 18.9071 19.486 19.63C18.6593 20.3529 17.5982 20.7509 16.5 20.7501C13.1185 20.7501 9.87548 19.4068 7.48439 17.0157C5.0933 14.6246 3.75 11.3816 3.75 8.0001C3.74916 6.90192 4.1472 5.8408 4.87009 5.0141C5.59298 4.1874 6.59152 3.65138 7.68 3.50573C7.84091 3.48661 8.00368 3.52012 8.14395 3.60124C8.28422 3.68236 8.39444 3.80673 8.45813 3.95573L10.4391 8.38073C10.4877 8.49438 10.5076 8.6183 10.4968 8.74146C10.486 8.86463 10.4449 8.98321 10.3772 9.08666L8.37375 11.4689C8.30269 11.5761 8.26066 11.6999 8.25179 11.8283C8.24291 11.9566 8.26749 12.085 8.32313 12.201C9.09844 13.7882 10.7391 15.4092 12.3309 16.177C12.4475 16.2324 12.5766 16.2564 12.7053 16.2467C12.834 16.237 12.958 16.1939 13.065 16.1217L15.4116 14.1257Z" stroke="#FAFAFA" stroke-width="2" stroke-linecap="round" stroke-linejoin="round"/>
</g>
<defs>
<clipPath id="clip0_2_483">
<rect width="24" height="24" fill="white" transform="translate(0 0.5)"/>
</clipPath>
</defs>
</svg>
