<svg width="32" height="32" viewBox="0 0 32 32" fill="none" xmlns="http://www.w3.org/2000/svg">
<g clip-path="url(#clip0_2_537)">
<path d="M10 16.8586L21.2825 26.7498C21.4125 26.8645 21.57 26.9434 21.7397 26.9788C21.9093 27.0143 22.0853 27.005 22.2502 26.9519C22.4152 26.8989 22.5636 26.8038 22.6808 26.6761C22.798 26.5485 22.88 26.3925 22.9187 26.2236L28 4.15234C28.005 4.1302 28.0038 4.10714 27.9967 4.08561C27.9895 4.06409 27.9766 4.04491 27.9594 4.03014C27.9422 4.01537 27.9213 4.00556 27.899 4.00176C27.8766 3.99797 27.8536 4.00032 27.8325 4.00858L2.5 13.9223C2.34274 13.9829 2.20935 14.0928 2.11986 14.2356C2.03038 14.3783 1.98962 14.5463 2.0037 14.7142C2.01779 14.8821 2.08596 15.041 2.19799 15.1668C2.31002 15.2927 2.45985 15.3789 2.625 15.4123L10 16.8586Z" stroke="#FAFAFA" stroke-width="3" stroke-linecap="round" stroke-linejoin="round"/>
<path d="M10 16.8587L27.9263 4.01123" stroke="#FAFAFA" stroke-width="3" stroke-linecap="round" stroke-linejoin="round"/>
<path d="M15.5463 21.7226L11.72 25.6926C11.5817 25.8361 11.4038 25.935 11.209 25.9766C11.0141 26.0182 10.8113 26.0007 10.6265 25.9263C10.4417 25.8519 10.2833 25.724 10.1717 25.559C10.0601 25.394 10.0003 25.1994 10 25.0001V16.8589" stroke="#FAFAFA" stroke-width="3" stroke-linecap="round" stroke-linejoin="round"/>
</g>
<defs>
<clipPath id="clip0_2_537">
<rect width="32" height="32" fill="white"/>
</clipPath>
</defs>
</svg>
