<svg width="32" height="32" viewBox="0 0 32 32" fill="none" xmlns="http://www.w3.org/2000/svg">
<path d="M10.62 8.26917C10.3722 8.2331 10.1196 8.28298 9.90404 8.4105H9.88538C9.38538 8.70384 8.93471 9.07317 8.55071 9.50784C8.23071 9.87717 8.05738 10.2505 8.01204 10.6105C7.98538 10.8238 8.00404 11.0398 8.06671 11.2438L8.09071 11.2572C8.45071 12.3145 8.92004 13.3318 9.49338 14.2892C10.2326 15.6338 11.1424 16.8774 12.2 17.9892L12.232 18.0345L12.2827 18.0718L12.3134 18.1078L12.3507 18.1398C13.4663 19.2007 14.7129 20.1147 16.06 20.8598C17.6 21.6985 18.5347 22.0945 19.096 22.2598V22.2678C19.26 22.3185 19.4094 22.3412 19.56 22.3412C20.0381 22.3058 20.4906 22.1115 20.8454 21.7892C21.2787 21.4052 21.6454 20.9532 21.9307 20.4505V20.4412C22.1987 19.9345 22.108 19.4572 21.7214 19.1332C20.9447 18.4545 20.1049 17.8518 19.2134 17.3332C18.616 17.0092 18.0094 17.2052 17.764 17.5332L17.24 18.1945C16.9707 18.5225 16.4827 18.4772 16.4827 18.4772L16.4694 18.4852C12.828 17.5558 11.856 13.8692 11.856 13.8692C11.856 13.8692 11.8107 13.3678 12.148 13.1118L12.804 12.5838C13.1187 12.3278 13.3374 11.7225 13 11.1252C12.4849 10.2329 11.8833 9.39327 11.204 8.6185C11.0559 8.43616 10.8481 8.31198 10.6174 8.26784L10.62 8.26917ZM16.7734 6.6665C16.5966 6.6665 16.427 6.73674 16.302 6.86177C16.1769 6.98679 16.1067 7.15636 16.1067 7.33317C16.1067 7.50998 16.1769 7.67955 16.302 7.80457C16.427 7.9296 16.5966 7.99984 16.7734 7.99984C18.4587 7.99984 19.8587 8.5505 20.9667 9.6065C21.536 10.1838 21.98 10.8678 22.2707 11.6172C22.5627 12.3678 22.696 13.1692 22.6614 13.9718C22.654 14.1486 22.7171 14.3212 22.8368 14.4514C22.9566 14.5817 23.1232 14.6591 23.3 14.6665C23.4769 14.6739 23.6494 14.6108 23.7796 14.491C23.9099 14.3713 23.9873 14.2046 23.9947 14.0278C24.0361 13.0405 23.8722 12.0553 23.5134 11.1345C23.153 10.2094 22.6066 9.368 21.908 8.6625L21.8947 8.64917C20.52 7.33584 18.7814 6.6665 16.7734 6.6665Z" fill="#FAFAFA"/>
<path d="M16.7267 8.85876C16.5499 8.85876 16.3803 8.92899 16.2553 9.05402C16.1303 9.17904 16.0601 9.34861 16.0601 9.52542C16.0601 9.70223 16.1303 9.8718 16.2553 9.99683C16.3803 10.1219 16.5499 10.1921 16.7267 10.1921H16.7494C17.9654 10.2788 18.8507 10.6841 19.4707 11.3494C20.1067 12.0348 20.4361 12.8868 20.4107 13.9401C20.4067 14.1169 20.473 14.2881 20.5951 14.416C20.7173 14.5439 20.8852 14.618 21.0621 14.6221C21.2389 14.6262 21.4101 14.5598 21.538 14.4377C21.6659 14.3155 21.74 14.1476 21.7441 13.9708C21.7761 12.5881 21.3307 11.3948 20.4481 10.4428V10.4401C19.5454 9.47209 18.3067 8.96009 16.8161 8.86009L16.7934 8.85742L16.7267 8.85876Z" fill="#FAFAFA"/>
<path d="M16.7013 11.0919C16.6121 11.0841 16.5222 11.0942 16.437 11.1219C16.3518 11.1495 16.2731 11.194 16.2055 11.2528C16.1379 11.3115 16.0828 11.3833 16.0435 11.4638C16.0043 11.5443 15.9816 11.6319 15.977 11.7213C15.9723 11.8108 15.9857 11.9002 16.0164 11.9844C16.0471 12.0685 16.0944 12.1456 16.1555 12.2111C16.2167 12.2765 16.2904 12.329 16.3722 12.3653C16.4541 12.4017 16.5425 12.4212 16.632 12.4226C17.1893 12.4519 17.5453 12.6199 17.7693 12.8453C17.9947 13.0719 18.1627 13.4359 18.1933 14.0053C18.195 14.0947 18.2147 14.1829 18.2511 14.2647C18.2876 14.3464 18.3402 14.4199 18.4057 14.4809C18.4712 14.5418 18.5483 14.589 18.6324 14.6195C18.7165 14.6501 18.8059 14.6633 18.8952 14.6586C18.9846 14.6539 19.0721 14.6312 19.1525 14.5919C19.2329 14.5526 19.3046 14.4976 19.3632 14.43C19.4219 14.3624 19.4664 14.2838 19.494 14.1987C19.5216 14.1135 19.5318 14.0237 19.524 13.9346C19.4813 13.1346 19.2307 12.4279 18.7173 11.9079C18.2013 11.3879 17.4987 11.1346 16.7013 11.0919Z" fill="#FAFAFA"/>
<path fill-rule="evenodd" clip-rule="evenodd" d="M9.42266 3.17858C13.6654 2.23019 18.0652 2.23019 22.308 3.17858L22.76 3.27858C24.0003 3.55585 25.1394 4.17155 26.0507 5.05728C26.9621 5.94301 27.6101 7.06407 27.9227 8.29592C28.9996 12.5398 28.9996 16.9854 27.9227 21.2292C27.6101 22.4611 26.9621 23.5822 26.0507 24.4679C25.1394 25.3536 24.0003 25.9693 22.76 26.2466L22.3067 26.3466C19.6494 26.9408 16.9226 27.1647 14.204 27.0119L10.6667 30.1772C10.5333 30.2967 10.3703 30.3781 10.1948 30.413C10.0192 30.4479 9.8375 30.4351 9.66859 30.3759C9.49968 30.3166 9.34977 30.2131 9.23451 30.0761C9.11925 29.9392 9.04286 29.7738 9.01332 29.5972L8.42799 26.1012C7.30557 25.752 6.29147 25.1207 5.48262 24.2678C4.67376 23.4148 4.09719 22.3686 3.80799 21.2292C2.731 16.9854 2.731 12.5398 3.80799 8.29592C4.12055 7.06407 4.76852 5.94301 5.6799 5.05728C6.59129 4.17155 7.73039 3.55585 8.97066 3.27858L9.42266 3.17858ZM21.872 5.12925C17.9164 4.24499 13.8143 4.24499 9.85866 5.12925L9.40532 5.23058C8.52628 5.42746 7.71901 5.86412 7.07316 6.49209C6.4273 7.12006 5.96814 7.91475 5.74666 8.78792C4.75161 12.7089 4.75161 16.8163 5.74666 20.7373C5.96824 21.6106 6.42761 22.4054 7.07371 23.0334C7.71982 23.6614 8.52737 24.0979 9.40666 24.2946L9.52666 24.3212C9.72078 24.3647 9.89755 24.465 10.0344 24.6094C10.1712 24.7538 10.2618 24.9357 10.2947 25.1319L10.6867 27.4759L13.1827 25.2426C13.2823 25.1531 13.399 25.0846 13.5256 25.0411C13.6523 24.9976 13.7864 24.98 13.92 24.9893C16.5854 25.1783 19.2642 24.9785 21.872 24.3959L22.324 24.2946C23.2033 24.0979 24.0108 23.6614 24.6569 23.0334C25.303 22.4054 25.7624 21.6106 25.984 20.7373C26.9787 16.8173 26.9787 12.7092 25.984 8.78792C25.7624 7.91458 25.303 7.11977 24.6569 6.49179C24.0108 5.86381 23.2033 5.42724 22.324 5.23058L21.872 5.12925Z" fill="#FAFAFA"/>
</svg>
